# xmcd CD database file
#
# Track frame offsets:
#	150
#	32049
#	69750
#	96911
#	138250
#	173365
#	215033
#
# Disc length: 3620 seconds
#
# Revision: 0
# Processed by: cddbd v1.5.2PL0 Copyright (c) Steve Scherf et al.
# Submitted via: CDex 1.70beta2
#
DISCID=570e2207
DTITLE=Grand Central - Perilous Night
DYEAR=2007
DGENRE=Jazz
TTITLE0=Hiram
TTITLE1=Seven Nights
TTITLE2=Dexter
TTITLE3=Guitar
TTITLE4=How R U Doin'
TTITLE5=Ridiculous Patience
TTITLE6=Groove Thang
EXTD=YEAR: 2007
EXTT0=
EXTT1=
EXTT2=
EXTT3=
EXTT4=
EXTT5=
EXTT6=
PLAYORDER=
